<?xml version="1.0" encoding="utf-8"?>
<!-- Generator: Adobe Illustrator 16.0.0, SVG Export Plug-In . SVG Version: 6.00 Build 0)  -->
<!DOCTYPE svg PUBLIC "-//W3C//DTD SVG 1.1//EN" "http://www.w3.org/Graphics/SVG/1.1/DTD/svg11.dtd">
<svg version="1.1" id="Capa_1" xmlns="http://www.w3.org/2000/svg" xmlns:xlink="http://www.w3.org/1999/xlink" x="0px" y="0px"
	 width="952.1px" height="952.1px" viewBox="0 0 952.1 952.1" enable-background="new 0 0 952.1 952.1" xml:space="preserve">
<g>
	<g>
		<path fill="#FFFFFF" d="M812.55,139.4c-43.7-43.7-94.6-78-151.3-102C602.55,12.6,540.25,0,475.95,0
			c-64.2,0.1-126.5,12.6-185.2,37.5c-56.7,24-107.6,58.3-151.3,102c-43.7,43.7-78,94.6-102,151.3c-24.8,58.7-37.4,121-37.4,185.3
			c0,64.201,12.6,126.601,37.4,185.302c24,56.698,58.3,107.6,102,151.299c43.7,43.701,94.6,78,151.3,102
			c58.7,24.801,121,37.399,185.3,37.399c64.2,0,126.602-12.6,185.3-37.399c56.7-24,107.602-58.299,151.302-102
			c43.698-43.699,78-94.601,102-151.299c24.8-58.701,37.398-121,37.398-185.302c0-64.199-12.6-126.6-37.398-185.3
			C890.55,234,856.25,183.2,812.55,139.4z M212.55,107.5c4.3-3.3,8.5-6.8,12.9-9.9c23.1-16.2,48.7-29.3,74.7-40.2
			c55.4-23.2,115.6-35.4,175.8-35.4c40.1,0,81.2,5.4,119.898,16c-15.3,6.2-34,18-65.398,44.8c-26.102-2.8-52.5-2.9-79-0.4
			c-34.602,3.3-69.4,11-103.4,23c-30.7,10.8-55,23.1-71.4,32.5c-25.1-9-57.5-19.6-73.5-24.8C205.65,113.9,210.85,108.8,212.55,107.5
			z M646.15,226.5l-81.4,222.2l-195.3,37.5l-161.4-166.7c10.9-75.6,62.7-142.6,62.7-142.6c0.3-0.2,34.1-24.6,88.3-43.5
			c31.602-11.1,63.8-18.2,95.9-21.2c26.2-2.4,52.3-2,78.1,1.1L646.15,226.5z M39.35,460.2c-5,32.3-6.1,65.8-3.5,99.5
			c-3.9-7.799-7-14.398-9.3-19.699c-3-20.9-4.5-42.301-4.5-64.1c0-67,14.5-130.7,40.6-188c-2.9,30-1.5,61.1,0.6,84.7
			C52.05,400.7,44.05,430,39.35,460.2z M78.85,633.301c-4.6-16.899-10-41.5-12.7-71c-3-33.301-2.1-66.399,2.9-98.101
			c3.8-24.3,9.9-47.899,18.3-70.6c32.9-27.8,76.5-44.1,100.6-51.6L346.35,505.6L329.75,684.9L174.95,736.6
			C135.55,707.6,103.35,669.199,78.85,633.301z M549.25,892.9c-34.5,22.6-121.7,28-157.1,29.299c-39-7.299-76.9-19.799-112.602-37
			c-31.2-15-60.8-33.601-87.8-55.398c0.5-0.899-4.2-48.602-4-66l156.4-52.201l180.5,78.101L549.548,892.6
			C549.35,892.801,549.25,892.9,549.25,892.9z M849.15,734.6C822.25,773.4,790.05,809.5,751.35,836.9
			c-36.3,25.6-84.898,34.399-128.1,41.5c-3.3,0.5-44.6,7.299-44.9,5.899l-24.898-103L680.55,649l168.3-15.5
			c2.602,26.801,6,65.9,8,89.801C854.25,727.1,851.75,730.9,849.15,734.6z M851.75,600c-0.6,1-1.2,2.1-1.8,3.301L682.35,618.699
			L592.15,460.9l81.6-222.7l115.2,7.3c24.5,20.5,46.2,43.3,64.6,67.9c23,30.9,40.9,64.8,53.102,100.7
			C893.85,525.301,864.35,580.699,851.75,600z M911.85,349.8c-9.898-19.1-21.5-37.5-34.6-55c-20.7-27.7-45.3-53.2-73.2-75.9
			c-5.1-25.3-19.1-65.1-56.7-106.9c0.7,0.5,1.4,1.1,2.102,1.6c2.3,1.7,4.5,3.5,6.8,5.2c25.9,20.4,49.5,43.5,70.4,68.9
			c38.8,47.3,68.1,102.2,85.3,161.1C911.85,349.2,911.85,349.5,911.85,349.8z"/>
	</g>
</g>
</svg>
